<?xml version="1.0" encoding="utf-8"?>
<!-- Generator: Adobe Illustrator 18.1.1, SVG Export Plug-In . SVG Version: 6.00 Build 0)  -->
<!DOCTYPE svg PUBLIC "-//W3C//DTD SVG 1.1//EN" "http://www.w3.org/Graphics/SVG/1.1/DTD/svg11.dtd">
<svg version="1.1" id="Layer_1" xmlns="http://www.w3.org/2000/svg" xmlns:xlink="http://www.w3.org/1999/xlink" x="0px" y="0px"
	 viewBox="0 0 400 400" enable-background="new 0 0 400 400" xml:space="preserve">
<g id="g3" transform="matrix(11.576693,0,0,11.576693,-25336.222,-14858.668)">
	<polygon id="polygon5" fill="#ED2127" points="2205.8,1317.6 2220.8,1302.6 2215.9,1291.3 2218.7,1291.3 2218.7,1283.9 
		2193,1283.9 2193,1291.3 2195.8,1291.3 2190.9,1302.6 	"/>
	<path id="path7" fill="#FBEE23" d="M2194.4,1285.3c0,1.4,0,3.2,0,4.6c0.7,0,22.2,0,22.9,0c0-1.4,0-3.2,0-4.6
		C2214.9,1285.3,2196.8,1285.3,2194.4,1285.3L2194.4,1285.3z"/>
	<path id="path9" d="M2205.8,1291.3h-8.5c-1.3,3-4.3,9.8-4.8,11c1.1,1.1,11.7,11.7,13.3,13.3V1291.3L2205.8,1291.3z"/>
	<path id="path11" fill="#FBEE23" d="M2214.3,1291.3h-8.5v24.3c1.6-1.6,12.2-12.2,13.3-13.3
		C2218.6,1301.2,2215.6,1294.3,2214.3,1291.3L2214.3,1291.3z"/>
	<polygon id="polygon13" points="2197.7,1287 2198.2,1289.3 2198.8,1289.3 2199.6,1286.1 2199,1286.1 2198.5,1288.6 2198,1286.1 
		2197.4,1286.1 2196.9,1288.6 2196.4,1286.1 2195.8,1286.1 2196.5,1289.3 2197.2,1289.3 	"/>
	<path id="path15" d="M2200.7,1288.2l0.4-1.1l0.4,1.1H2200.7L2200.7,1288.2z M2201.8,1289.3h0.6l-1-2.8h-0.6l-1,2.8h0.6l0.2-0.7h1
		L2201.8,1289.3L2201.8,1289.3z"/>
	<polygon id="polygon17" points="2202.4,1286.5 2202.4,1287 2203.2,1287 2203.2,1289.3 2203.8,1289.3 2203.8,1287 2204.5,1287 
		2204.7,1286.5 	"/>
	<polygon id="polygon19" points="2205.2,1286.5 2205.2,1289.3 2205.8,1289.3 2205.8,1288.1 2206.6,1288.1 2206.6,1287.6 
		2205.8,1287.6 2205.8,1287 2206.8,1287 2206.9,1286.5 	"/>
	<path id="path21" d="M2208.6,1289c-0.6,0-0.7-0.5-0.7-1s0.1-1,0.7-1c0.6,0,0.7,0.5,0.7,1S2209.1,1289,2208.6,1289L2208.6,1289z
		 M2208.6,1286.5c-1,0-1.4,0.7-1.4,1.5c0,0.8,0.4,1.5,1.4,1.5s1.4-0.7,1.4-1.5C2209.9,1287.1,2209.5,1286.5,2208.6,1286.5
		L2208.6,1286.5z"/>
	<path id="path23" d="M2211.7,1287.7h-0.4v-0.7h0.4c0.2,0,0.4,0,0.4,0.3S2211.8,1287.7,2211.7,1287.7L2211.7,1287.7z M2212,1288.1
		L2212,1288.1c0.2,0,0.7-0.2,0.7-0.8c0-0.6-0.5-0.8-1-0.8h-1.1v2.8h0.6v-1.2h0c0.2,0,0.9,1.2,0.9,1.2h0.7L2212,1288.1L2212,1288.1z"
		/>
	<path id="path25" d="M2214.5,1288.9h-0.5v-1.9h0.5c0.4,0,0.6,0.4,0.6,0.9C2215.1,1288.5,2214.9,1288.9,2214.5,1288.9L2214.5,1288.9
		z M2214.5,1286.5h-1v2.8h1c0.9,0,1.3-0.6,1.3-1.4S2215.4,1286.5,2214.5,1286.5L2214.5,1286.5z"/>
	<path id="path27" d="M2201,1293.6c0,0.1,0,0.1,0,0.2c0,0.1,0,0.1,0,0.2c0,0.4-0.1,0.6-0.2,0.6c0,0,0,0,0,0c0,0,0,0,0,0
		c-0.1-0.2-0.3-0.3-0.7-0.3c-0.4,0-0.7,0.3-0.7,0.7c0,0.6,0.2,1.1,0.3,1.5c0.1,0.2,0.1,0.4,0.1,0.6c0,0.1-0.1,0.2-0.1,0.2
		c-0.2,0-0.2-0.1-0.3-0.2c-0.1-0.1-0.4-0.4-0.8-0.4c-0.2,0-0.7,0.1-0.7,0.7c0,0.3,0.1,0.5,0.2,0.7c0.1,0.2,0.2,0.5,0.2,0.8
		c0,0,0,0.3-0.1,0.3c-0.3,0-0.4-0.2-0.6-0.5c-0.1-0.3-0.3-0.6-0.8-0.6c-0.7,0-0.7,1.1-0.7,1.4c0,2.2,2.1,3,3.5,3c0.3,0,0.4,0,0.6,0
		c0.2,0,0.3,0,0.6,0c0.9,0,1.5,0.2,1.9,0.5c-0.2-0.1-0.5-0.1-0.8-0.1c-0.7,0-1,0.2-1.3,0.4c-0.1,0.1-0.2,0.1-0.3,0.2l-1.1,0.3
		l1.1,0.2c0.4,0.1,0.7,0.5,1,0.8c0.3,0.4,0.6,0.8,1.2,0.8c0.1,0,0.1,0,0.2,0c-0.1,0.3-0.1,0.6-0.1,1c0,0.6,0.1,0.8,0.3,1l0.1,0.1
		c0.1,0.1,0.2,0.2,0.3,0.4c0.3,0.4,0.6,0.8,0.6,1.3c0,0.3,0,0.5,0,0.7c0,0.2,0,0.4,0,0.7c0,0.8,0.5,1,0.8,1.1c0,0,0.1,0,0.1,0
		c0.1,0.3,0.3,0.4,0.5,0.4l0.1,0l0.1,0c0.1,0,0.2,0.1,0.4,0.1c0.5,0,0.8-0.4,0.8-0.7c0,0,0,0,0,0c0.2-0.1,0.7-0.3,0.7-1
		c0-0.4,0-0.6-0.1-0.9c0-0.2-0.1-0.3-0.1-0.5c0-0.4,0.2-0.7,0.4-1c0.3-0.4,0.7-0.9,0.7-2.1c0-0.4,0-0.7-0.1-1c0.1,0,0.1,0,0.2,0
		c0.8,0,1-0.5,1.2-0.8c0.4-0.7,1.1-0.7,1.1-0.7s-0.6-1-1.9-1c-0.4,0-0.7,0.1-0.9,0.2c0.1-0.3,0.3-0.4,0.4-0.5
		c0.4-0.2,0.9-0.2,1.4-0.2c0.3,0,0.5,0,0.7,0c0.2,0,0.4,0,0.6,0c1.9,0,2.4-0.6,3-1.3c0.5-0.5,0.8-1.1,0.8-1.9c0-0.6-0.2-1.1-0.6-1.1
		c-0.4,0-0.6,0.4-0.7,0.7c-0.2,0.3-0.3,0.5-0.4,0.5c-0.2,0-0.4-0.2-0.4-0.5c0-0.2,0.2-0.5,0.3-0.8c0.2-0.3,0.4-0.7,0.4-1
		c0-0.2-0.1-0.4-0.2-0.5c-0.1-0.1-0.3-0.2-0.4-0.2c-0.3,0-0.6,0.3-0.9,0.6c-0.2,0.2-0.4,0.4-0.5,0.4c0,0-0.1-0.1-0.1-0.2
		c0-0.2,0.1-0.6,0.2-0.9c0.1-0.4,0.2-0.7,0.2-1c0-0.6-0.4-0.9-0.7-0.9c-0.3,0-0.5,0.1-0.7,0.3c-0.1,0.1-0.2,0.1-0.3,0.1c0,0,0,0,0,0
		c0,0,0-0.3,0-0.3c0-0.1,0-0.2,0-0.3c0-0.6,0-1.1-0.3-1.3c-0.1-0.1-0.3-0.2-0.5-0.2c-0.9,0-1.3,1.2-1.3,2.3c0,0.5,0,1,0,1.5
		c0,0.4,0,0.8,0,1.3c0,1.1-0.2,1.9-0.4,2.4c-0.1-0.5-0.2-1.3-0.7-1.3c-0.5,0-0.6,0.6-0.7,1.4c-0.1,0.7-0.3,1.5-0.7,1.5
		c-0.3,0-0.4-0.6-0.5-1.4c-0.1-0.8-0.2-1.7-0.9-1.7c-0.8,0-0.8,1-0.9,1.7c0,0.1,0,0.2,0,0.3c-0.2-0.4-0.4-1-0.4-1.6
		c0-0.7,0-1.3,0.1-1.9c0-0.5,0.1-1.1,0.1-1.8c0-1.5-0.4-1.9-0.7-2.2l0,0c-0.2-0.2-0.4-0.5-0.7-0.5
		C2201.3,1292.7,2201,1293.1,2201,1293.6L2201,1293.6z"/>
	<path id="path29" fill="#ED2127" d="M2207.9,1305.9L2207.9,1305.9c0,0.1-0.3,0-0.6,0c-0.4,0-0.6,0.3-0.6,0.3s0.1-0.1,0.4-0.1
		c0.4,0,0.7,0.2,0.7,0.3c0,0.1-0.1,0.1-0.2,0.1c0,0.2-0.2,0.4-1,0.4c0,0.4,0.2,0.6,0.2,0.7c-0.2,0-0.2,0.2-0.2,0.5
		c0,0-0.3-1-0.3-1.5c0-0.6,0.2-1.1,0.8-1.1C2207.5,1305.7,2207.9,1305.9,2207.9,1305.9L2207.9,1305.9z M2209.5,1303.9
		c0.1,0,0.2,0,0.2,0c-0.7,0.1-0.7,1-1.2,1c-0.1,0-0.2-0.1-0.2-0.1c0.1-0.2,0.3-0.2,0.3-0.4c-0.2,0-0.3,0-0.5,0.1
		C2208.1,1304.4,2208.6,1303.9,2209.5,1303.9L2209.5,1303.9z M2204.8,1308.3v-0.4c0-0.1-0.1-0.2-0.2-0.2l0.3-0.7v-0.1
		c-0.5,0-1-0.1-1-0.5h-0.1c0,0-0.1,0-0.1-0.1c0,0,0.2-0.2,0.6-0.2c0.3,0,0.5,0.1,0.5,0.1s-0.2-0.4-0.6-0.4c-0.3,0-0.4,0-0.4,0
		s0.2-0.2,0.4-0.2c0.7,0,0.9,0.4,0.9,1.2C2205.1,1307.7,2204.8,1308.3,2204.8,1308.3L2204.8,1308.3z M2202.9,1304.5
		c0,0.1,0.2,0.1,0.4,0.1c0,0.1-0.2,0.2-0.3,0.2c-0.6,0-0.3-0.9-1.5-1.1c0,0,0.1,0,0.2,0c0.9,0,1.2,0.7,1.7,0.7
		C2203.2,1304.4,2202.9,1304.4,2202.9,1304.5L2202.9,1304.5z M2214.5,1298.6c-0.5,0-0.4,1.2-1.1,1.2c-0.4,0-0.7-0.3-0.7-0.8
		c0-0.6,0.7-1.3,0.7-1.9c0-0.2-0.2-0.4-0.4-0.4c-0.5,0-0.9,1-1.4,1c-0.2,0-0.3-0.3-0.3-0.5c0-0.5,0.4-1.4,0.4-1.9
		c0-0.4-0.2-0.6-0.4-0.6c-0.4,0-0.6,0.4-1,0.4c-0.2,0-0.3-0.2-0.3-0.3c0-1.1,0.1-1.8-0.5-1.8c-0.7,0-1,1-1,2c0,1,0.1,1.8,0.1,2.7
		c0,1.4-0.3,2.6-0.6,2.9c0,0-0.1,0.8,0.3,0.8c0.7,0,1.7-1.9,3.1-1.9c0.6,0,0.6,0.4,0.6,0.5c0,0.5-0.7,0.7-0.7,1
		c0,0.2,0.2,0.2,0.5,0.2c0.9,0,1.5-0.5,1.5-0.5s-0.6,0.7-1.6,0.7c-0.4,0-0.8-0.1-0.8-0.4c0-0.4,0.8-0.7,0.8-1.1
		c0-0.1-0.1-0.3-0.4-0.3c-1.1,0-2.2,2.1-3.1,2.1c-0.2,0-0.4-0.1-0.4-0.6c0-0.4,0-2.1-0.5-2.1c-0.6,0-0.3,2.9-1.4,2.9
		c-1.2,0-0.5-3.1-1.4-3.1c-0.6,0-0.5,0.8-0.6,1.6c-0.1,0.6-0.3,1.2-0.6,1.2c-0.5,0-0.9-0.2-1.3-0.5c-0.3-0.2-0.6-0.3-0.8-0.5
		c-0.4-0.3-0.6-0.6-1-0.6c-0.2,0-0.4,0.1-0.4,0.3c0,0.4,0.4,0.6,0.4,0.9c0,0.2-0.3,0.4-0.6,0.4c-1,0-1.6-0.7-1.6-0.9
		c0,0,0.5,0.7,1.7,0.7c0.3,0,0.3-0.1,0.3-0.2c0-0.2-0.4-0.4-0.4-0.9c0-0.3,0.2-0.5,0.5-0.5c0.4,0,0.7,0.3,1.1,0.6
		c0.6,0.4,1.4,0.9,2,0.9c0.2,0,0.4-0.1,0.4-0.3c0-0.2-0.7-0.9-0.7-2.1c0-1.5,0.2-2.3,0.2-3.6c0-1.4-0.3-1.7-0.6-2.1
		c-0.2-0.3-0.4-0.4-0.5-0.4c-0.3,0-0.4,0.4-0.4,0.6c0,0.1,0,0.2,0,0.4c0,0.5-0.1,0.9-0.4,0.9c-0.4,0-0.2-0.4-0.8-0.4
		c-0.3,0-0.4,0.2-0.4,0.4c0,1,0.4,1.7,0.4,2.1c0,0.2-0.1,0.5-0.4,0.5c-0.6,0-0.5-0.5-1.1-0.5c-0.3,0-0.4,0.2-0.4,0.4
		c0,0.5,0.4,0.8,0.4,1.5c0,0.3-0.1,0.5-0.4,0.5c-0.9,0-0.8-1.1-1.3-1.1c-0.3,0-0.4,0.4-0.4,1.2c0,2.1,2,2.8,3.3,2.8
		c0.5,0,0.6-0.1,1.2-0.1c2.8,0,2.6,1.7,2.6,1.7s-0.4-0.8-1.5-0.8c-1.1,0-1,0.4-1.5,0.6c1.1,0.2,1.2,1.7,2.1,1.7
		c0.4,0,0.6-0.3,0.6-0.3s-0.2,0.6-0.2,1.6c0,0.7,0.2,0.7,0.4,1c0.4,0.6,0.9,1,0.9,1.8c0.1,0,0.2-0.6,0.3-0.6c0,0,0.1,0.1,0.1,0.2
		c0,0.3-0.3,0.8-0.3,1.8c0,0.6,0.4,0.8,0.6,0.9c0.1,0,0.4-0.8,0.4-0.8c-0.2,0.6-0.2,0.9-0.2,1c0,0.2,0.2,0.2,0.4,0.3
		c0.1,0,0.2,0.1,0.4,0.1c0.5,0,0.5-0.4,0.5-0.6c0-0.2-0.2-0.5-0.2-0.7c0,0,0-0.1,0-0.1c0.1,0,0.3,0.6,0.3,0.6
		c0.2-0.1,0.6-0.2,0.6-0.8c0-0.6-0.4-1.5-0.4-1.8c0-0.1,0-0.1,0.1-0.1c0.1,0,0.2,0.3,0.2,0.3c0.2-0.9,1.2-1,1.2-2.8
		c0-1.1-0.2-1.5-0.2-1.5s0.3,0.2,0.6,0.2c1.1,0,0.8-1.1,1.7-1.4c0-0.1-0.5-0.5-1.2-0.5c-1,0-1.3,0.5-1.3,0.5c0-1.6,1.1-1.6,2.2-1.6
		c0.6,0,0.8,0.1,1.3,0.1c1.8,0,2.2-0.5,2.8-1.2c0.5-0.6,0.7-1,0.7-1.7C2214.8,1299.1,2214.7,1298.6,2214.5,1298.6L2214.5,1298.6z"/>
	<path id="path31" fill="#ED2127" d="M2206.7,1306.7L2206.7,1306.7c0,0.1,0,0.2,0.2,0.2c0.4,0,0.5-0.3,0.5-0.3c0,0-0.2,0.2-0.5,0.2
		C2206.8,1306.7,2206.7,1306.7,2206.7,1306.7L2206.7,1306.7z"/>
	<path id="path33" fill="#ED2127" d="M2207.1,1306.6C2207.1,1306.6,2207.1,1306.6,2207.1,1306.6c-0.1,0.1-0.2,0-0.2,0
		C2206.9,1306.5,2207,1306.5,2207.1,1306.6C2207.1,1306.5,2207.1,1306.5,2207.1,1306.6L2207.1,1306.6z"/>
	<path id="path35" fill="#ED2127" d="M2204.3,1306.4c0,0,0.1,0.2,0.3,0.2c0.1,0,0.2-0.1,0.2-0.1c0,0,0.1,0,0.1,0.1
		c0,0-0.1,0.1-0.3,0.1C2204.4,1306.7,2204.2,1306.5,2204.3,1306.4C2204.2,1306.4,2204.2,1306.4,2204.3,1306.4L2204.3,1306.4z"/>
	<path id="path37" fill="#ED2127" d="M2204.6,1306.5C2204.6,1306.5,2204.6,1306.5,2204.6,1306.5c-0.1,0-0.1,0-0.1,0
		C2204.5,1306.4,2204.5,1306.4,2204.6,1306.5C2204.6,1306.4,2204.6,1306.4,2204.6,1306.5L2204.6,1306.5z"/>
</g>
</svg>
